<svg width="175" height="20" viewBox="0 0 175 20" fill="none" xmlns="http://www.w3.org/2000/svg">
<g clip-path="url(#clip0_147_17323)">
<path d="M48 20.0362H51.2964V15.3685C51.864 15.9142 52.7808 16.3072 53.8723 16.3072C57.1032 16.3072 59.2426 13.6439 59.2426 10.6095C59.2426 7.57509 57.1032 4.9118 53.8723 4.9118C52.7808 4.9118 51.864 5.30475 51.2964 5.82867V5.15194H48V20.0362ZM53.3702 13.3164C52.3442 13.3164 51.7548 12.8798 51.2964 12.2686V8.92857C51.7548 8.33915 52.3442 7.90254 53.3702 7.90254C54.8329 7.90254 55.8371 9.14687 55.8371 10.6095C55.8371 12.0721 54.8329 13.3164 53.3702 13.3164Z" fill="#2E2B3B"/>
<path d="M61.3241 16.0671H64.6205V9.1687C65.1662 8.42647 66.1923 8.18634 66.9563 8.18634C67.4148 8.18634 67.7859 8.27366 67.8732 8.31732L68.3753 5.23926C68.157 5.15194 67.6331 5.02095 67.0436 5.02095C65.9521 5.02095 64.9698 5.61037 64.6205 6.37443V5.15194H61.3241V16.0671Z" fill="#2E2B3B"/>
<path d="M71.5528 4.10408C72.7098 4.10408 73.6266 3.18721 73.6266 2.05204C73.6266 0.916871 72.7098 0 71.5528 0C70.4394 0 69.5007 0.916871 69.5007 2.05204C69.5007 3.18721 70.4394 4.10408 71.5528 4.10408ZM69.9155 16.0671H73.2119V5.15194H69.9155V16.0671Z" fill="#2E2B3B"/>
<path d="M81.0793 16.3072C83.3496 16.3072 85.358 15.0192 86.2967 13.12L83.4151 11.5919C83.0222 12.5306 82.1708 13.2291 81.0793 13.2291C79.704 13.2291 78.5906 12.1594 78.5906 10.6095C78.5906 9.05955 79.704 7.98987 81.0793 7.98987C82.1708 7.98987 83.0222 8.68843 83.4151 9.62713L86.2967 8.09902C85.358 6.19979 83.3496 4.9118 81.0793 4.9118C77.8702 4.9118 75.2724 7.26947 75.2724 10.6095C75.2724 13.9495 77.8702 16.3072 81.0793 16.3072Z" fill="#2E2B3B"/>
<path d="M93.2096 16.3072C95.5017 16.3072 97.3136 15.3467 98.3397 13.9059L95.8947 12.0721C95.4799 12.7052 94.5194 13.3164 93.2532 13.3164C92.0089 13.3164 90.7864 12.7052 90.5899 11.3954H98.5143C98.5798 10.8715 98.5798 10.5222 98.5798 10.2384C98.5798 6.70188 96.0257 4.9118 93.1441 4.9118C89.8259 4.9118 87.4027 7.35679 87.4027 10.6095C87.4027 14.1242 90.0005 16.3072 93.2096 16.3072ZM93.0567 7.59692C94.0173 7.59692 95.0215 8.07719 95.3053 9.23419H90.6773C90.961 8.03353 92.0962 7.59692 93.0567 7.59692Z" fill="#2E2B3B"/>
<path d="M114.323 16.0671H117.619V9.8891C117.619 7.18215 116.287 4.9118 113.056 4.9118C111.354 4.9118 110.175 5.58854 109.542 6.24345C108.778 5.4139 107.752 4.9118 106.486 4.9118C105.525 4.9118 104.477 5.34841 103.953 5.91599V5.15194H100.657V16.0671H103.953V8.8849C104.303 8.33915 105.045 7.94621 105.765 7.94621C107.097 7.94621 107.49 9.05955 107.49 10.4785V16.0671H110.786V9.8891C110.786 9.56164 110.764 9.32151 110.699 8.99406C111.114 8.33915 111.856 7.94621 112.598 7.94621C113.93 7.94621 114.323 9.05955 114.323 10.4785V16.0671Z" fill="#2E2B3B"/>
<path d="M124.9 16.3072C125.992 16.3072 126.908 15.9142 127.476 15.3685V16.0671H130.772V5.15194H127.476V5.82867C126.908 5.30475 125.992 4.9118 124.9 4.9118C121.669 4.9118 119.53 7.57509 119.53 10.6095C119.53 13.6439 121.669 16.3072 124.9 16.3072ZM125.402 13.3164C123.94 13.3164 122.935 12.0721 122.935 10.6095C122.935 9.14687 123.94 7.90254 125.402 7.90254C126.428 7.90254 127.018 8.33915 127.476 8.92857V12.2686C127.018 12.8798 126.428 13.3164 125.402 13.3164Z" fill="#2E2B3B"/>
<path d="M133.488 16.0671H136.784V9.1687C137.33 8.42647 138.356 8.18634 139.12 8.18634C139.578 8.18634 139.949 8.27366 140.037 8.31732L140.539 5.23926C140.32 5.15194 139.796 5.02095 139.207 5.02095C138.116 5.02095 137.133 5.61037 136.784 6.37443V5.15194H133.488V16.0671Z" fill="#2E2B3B"/>
<path d="M142.079 16.0671H145.375V11.1771L149.436 16.0671H153.431L148.453 10.0856L152.47 5.15194H148.563L145.375 9.05955V0.130982H142.079V16.0671Z" fill="#2E2B3B"/>
<path d="M158.786 16.3072C161.078 16.3072 162.89 15.3467 163.916 13.9059L161.471 12.0721C161.056 12.7052 160.095 13.3164 158.829 13.3164C157.585 13.3164 156.362 12.7052 156.166 11.3954H164.09C164.156 10.8715 164.156 10.5222 164.156 10.2384C164.156 6.70188 161.602 4.9118 158.72 4.9118C155.402 4.9118 152.979 7.35679 152.979 10.6095C152.979 14.1242 155.576 16.3072 158.786 16.3072ZM158.633 7.59692C159.593 7.59692 160.597 8.07719 160.881 9.23419H156.253C156.537 8.03353 157.672 7.59692 158.633 7.59692Z" fill="#2E2B3B"/>
<path d="M172.024 16.198C173.159 16.198 174.447 15.8269 174.971 15.5431L173.988 12.858C173.661 13.0326 173.05 13.2073 172.504 13.2073C171.39 13.2073 170.867 12.7052 170.867 11.3954V8.0117H174.141V5.15194H170.867V1.83374H167.57V5.15194H164.951V8.0117H167.57V12.0721C167.57 14.8446 169.426 16.198 172.024 16.198Z" fill="#2E2B3B"/>
<g clip-path="url(#clip1_147_17323)">
<path fill-rule="evenodd" clip-rule="evenodd" d="M0 10C0 4.47715 4.47715 0 10 0H30C35.5228 0 40 4.47715 40 10C40 15.5228 35.5228 20 30 20H10C4.47715 20 0 15.5228 0 10ZM38 10C38 14.4183 34.4183 18 30 18C25.5817 18 22 14.4183 22 10C22 5.58172 25.5817 2 30 2C34.4183 2 38 5.58172 38 10ZM10 18C14.4183 18 18 14.4183 18 10C18 5.58172 14.4183 2 10 2C5.58172 2 2 5.58172 2 10C2 14.4183 5.58172 18 10 18Z" fill="url(#paint0_linear_147_17323)"/>
<path d="M4.34315 15.6569C5.79086 17.1046 7.79086 18 10 18C14.4183 18 18 14.4183 18 10C18 7.79086 17.1046 5.79086 15.6569 4.34315L4.34315 15.6569Z" fill="#FFD0DB"/>
<path d="M24.3431 15.6568C25.7909 17.1046 27.7909 18 30 18C34.4183 18 38 14.4183 38 9.99999C38 7.79085 37.1046 5.79085 35.6568 4.34314L24.3431 15.6568Z" fill="#FFD0DB"/>
</g>
</g>
<defs>
<linearGradient id="paint0_linear_147_17323" x1="20" y1="0" x2="20" y2="20" gradientUnits="userSpaceOnUse">
<stop stop-color="#FF3D00"/>
<stop offset="1" stop-color="#FF0099"/>
</linearGradient>
<clipPath id="clip0_147_17323">
<rect width="175" height="20" fill="white"/>
</clipPath>
<clipPath id="clip1_147_17323">
<rect width="40" height="20" fill="white"/>
</clipPath>
</defs>
</svg>
