<svg width="20" height="20" viewBox="0 0 20 20" fill="none" xmlns="http://www.w3.org/2000/svg">
<path fill="currentColor" d="M9.42232 4.24399C9.57855 4.40026 9.66631 4.61219 9.66631 4.83316C9.66631 5.05413 9.57855 5.26605 9.42232 5.42232L5.84482 8.99982H15.4998C15.7208 8.99982 15.9328 9.08762 16.0891 9.2439C16.2454 9.40018 16.3332 9.61214 16.3332 9.83316C16.3332 10.0542 16.2454 10.2661 16.0891 10.4224C15.9328 10.5787 15.7208 10.6665 15.4998 10.6665H5.84482L9.42232 14.244C9.57412 14.4012 9.65812 14.6117 9.65622 14.8302C9.65432 15.0487 9.56668 15.2577 9.41217 15.4122C9.25766 15.5667 9.04865 15.6543 8.83016 15.6562C8.61166 15.6581 8.40116 15.5741 8.24399 15.4223L3.24399 10.4223C3.08776 10.266 3 10.0541 3 9.83316C3 9.61219 3.08776 9.40026 3.24399 9.24399L8.24399 4.24399C8.40026 4.08776 8.61219 4 8.83316 4C9.05413 4 9.26605 4.08776 9.42232 4.24399Z"/>
</svg>
