<svg width="20" height="20" viewBox="0 0 20 20" fill="none" xmlns="http://www.w3.org/2000/svg">
<path fill="currentColor" d="M10.2442 4.41084C10.4004 4.25461 10.6124 4.16685 10.8333 4.16685C11.0543 4.16685 11.2662 4.25461 11.4225 4.41084L16.4225 9.41084C16.5787 9.56711 16.6665 9.77903 16.6665 10C16.6665 10.221 16.5787 10.4329 16.4225 10.5892L11.4225 15.5892C11.2653 15.741 11.0548 15.825 10.8363 15.8231C10.6178 15.8212 10.4088 15.7335 10.2543 15.579C10.0998 15.4245 10.0122 15.2155 10.0103 14.997C10.0084 14.7785 10.0924 14.568 10.2442 14.4108L13.8217 10.8333H4.16666C3.94565 10.8333 3.73369 10.7455 3.57741 10.5893C3.42113 10.433 3.33333 10.221 3.33333 10C3.33333 9.77899 3.42113 9.56703 3.57741 9.41075C3.73369 9.25447 3.94565 9.16667 4.16666 9.16667H13.8217L10.2442 5.58917C10.0879 5.4329 10.0002 5.22097 10.0002 5C10.0002 4.77903 10.0879 4.56711 10.2442 4.41084Z"/>
</svg>
