<svg width="20" height="20" viewBox="0 0 20 20" fill="none" xmlns="http://www.w3.org/2000/svg">
<path fill="currentColor" d="M10 3.33333C10.221 3.33333 10.433 3.42113 10.5893 3.57741C10.7455 3.73369 10.8333 3.94565 10.8333 4.16666V13.8217L14.4108 10.2442C14.568 10.0924 14.7785 10.0084 14.997 10.0103C15.2155 10.0122 15.4245 10.0998 15.579 10.2543C15.7335 10.4088 15.8212 10.6178 15.8231 10.8363C15.825 11.0548 15.741 11.2653 15.5892 11.4225L10.5892 16.4225C10.4329 16.5787 10.221 16.6665 10 16.6665C9.77904 16.6665 9.56711 16.5787 9.41084 16.4225L4.41084 11.4225C4.33125 11.3456 4.26776 11.2537 4.22409 11.152C4.18041 11.0503 4.15743 10.941 4.15646 10.8303C4.1555 10.7197 4.17659 10.6099 4.21849 10.5075C4.26039 10.4051 4.32227 10.3121 4.40051 10.2338C4.47875 10.1556 4.5718 10.0937 4.67421 10.0518C4.77663 10.0099 4.88636 9.98883 4.99701 9.98979C5.10766 9.99075 5.21701 10.0137 5.31868 10.0574C5.42035 10.1011 5.5123 10.1646 5.58917 10.2442L9.16667 13.8217V4.16666C9.16667 3.94565 9.25447 3.73369 9.41075 3.57741C9.56703 3.42113 9.77899 3.33333 10 3.33333Z"/>
</svg>
