<svg width="20" height="20" viewBox="0 0 20 20" fill="none" xmlns="http://www.w3.org/2000/svg">
<path fill="currentColor" d="M10 3.33333C10.221 3.33338 10.4329 3.4212 10.5892 3.5775L15.5892 8.5775C15.741 8.73466 15.825 8.94517 15.8231 9.16366C15.8212 9.38216 15.7335 9.59117 15.579 9.74568C15.4245 9.90018 15.2155 9.98782 14.997 9.98972C14.7785 9.99162 14.568 9.90763 14.4108 9.75583L10.8333 6.17833V15.8333C10.8333 16.0543 10.7455 16.2663 10.5893 16.4226C10.433 16.5789 10.221 16.6667 10 16.6667C9.77899 16.6667 9.56703 16.5789 9.41075 16.4226C9.25447 16.2663 9.16667 16.0543 9.16667 15.8333V6.17833L5.58917 9.75583C5.432 9.90763 5.2215 9.99162 5.003 9.98972C4.78451 9.98782 4.5755 9.90018 4.42099 9.74568C4.26648 9.59117 4.17884 9.38216 4.17694 9.16366C4.17504 8.94517 4.25904 8.73466 4.41084 8.5775L9.41084 3.5775C9.56708 3.4212 9.77901 3.33338 10 3.33333Z"/>
</svg>
