<svg width="20" height="20" viewBox="0 0 20 20" fill="none" xmlns="http://www.w3.org/2000/svg">
<path fill="currentColor" fill-rule="evenodd" clip-rule="evenodd" d="M5.38704 2.88706C6.16845 2.10566 7.22825 1.66667 8.33332 1.66667C9.43839 1.66667 10.4982 2.10566 11.2796 2.88706C12.061 3.66846 12.5 4.72827 12.5 5.83334V11.6667C12.5 12.3297 12.2366 12.9656 11.7678 13.4344C11.2989 13.9033 10.663 14.1667 9.99999 14.1667C9.33695 14.1667 8.70106 13.9033 8.23222 13.4344C7.76338 12.9656 7.49999 12.3297 7.49999 11.6667V7.5C7.49999 7.03977 7.87309 6.66667 8.33332 6.66667C8.79356 6.66667 9.16666 7.03977 9.16666 7.5V11.6667C9.16666 11.8877 9.25445 12.0996 9.41073 12.2559C9.56702 12.4122 9.77898 12.5 9.99999 12.5C10.221 12.5 10.433 12.4122 10.5892 12.2559C10.7455 12.0996 10.8333 11.8877 10.8333 11.6667V5.83334C10.8333 5.1703 10.5699 4.53441 10.1011 4.06557C9.63225 3.59673 8.99636 3.33334 8.33332 3.33334C7.67028 3.33334 7.0344 3.59673 6.56556 4.06557C6.09672 4.53441 5.83332 5.1703 5.83332 5.83334V12.5C5.83332 13.6051 6.27231 14.6649 7.05371 15.4463C7.83511 16.2277 8.89492 16.6667 9.99999 16.6667C11.1051 16.6667 12.1649 16.2277 12.9463 15.4463C13.7277 14.6649 14.1667 13.6051 14.1667 12.5V4.16667C14.1667 3.70643 14.5398 3.33334 15 3.33334C15.4602 3.33334 15.8333 3.70643 15.8333 4.16667V12.5C15.8333 14.0471 15.2187 15.5308 14.1248 16.6248C13.0308 17.7188 11.5471 18.3333 9.99999 18.3333C8.45289 18.3333 6.96916 17.7188 5.8752 16.6248C4.78124 15.5308 4.16666 14.0471 4.16666 12.5V5.83334C4.16666 4.72827 4.60564 3.66846 5.38704 2.88706Z"/>
</svg>
