<svg width="20" height="20" viewBox="0 0 20 20" fill="none" xmlns="http://www.w3.org/2000/svg">
<path fill="currentColor" d="M12 10.5C12 11.163 11.7366 11.7989 11.2678 12.2678C10.7989 12.7366 10.163 13 9.5 13C8.83696 13 8.20107 12.7366 7.73223 12.2678C7.26339 11.7989 7 11.163 7 10.5C7 9.83696 7.26339 9.20107 7.73223 8.73223C8.20107 8.26339 8.83696 8 9.5 8C10.163 8 10.7989 8.26339 11.2678 8.73223C11.7366 9.20107 12 9.83696 12 10.5ZM6.095 4.0375C6.25062 3.72579 6.49 3.4636 6.7863 3.28035C7.08261 3.09709 7.42411 3.00001 7.7725 3H11.2275C11.5759 3.00001 11.9174 3.09709 12.2137 3.28035C12.51 3.4636 12.7494 3.72579 12.905 4.0375L13.6362 5.5H14.5C15.163 5.5 15.7989 5.76339 16.2678 6.23223C16.7366 6.70107 17 7.33696 17 8V14.25C17 14.913 16.7366 15.5489 16.2678 16.0178C15.7989 16.4866 15.163 16.75 14.5 16.75H4.5C3.83696 16.75 3.20107 16.4866 2.73223 16.0178C2.26339 15.5489 2 14.913 2 14.25V8C2 7.33696 2.26339 6.70107 2.73223 6.23223C3.20107 5.76339 3.83696 5.5 4.5 5.5H5.36375L6.095 4.0375ZM13.25 10.5C13.25 9.50544 12.8549 8.55161 12.1517 7.84835C11.4484 7.14509 10.4946 6.75 9.5 6.75C8.50544 6.75 7.55161 7.14509 6.84835 7.84835C6.14509 8.55161 5.75 9.50544 5.75 10.5C5.75 11.4946 6.14509 12.4484 6.84835 13.1517C7.55161 13.8549 8.50544 14.25 9.5 14.25C10.4946 14.25 11.4484 13.8549 12.1517 13.1517C12.8549 12.4484 13.25 11.4946 13.25 10.5Z"/>
</svg>
