<svg width="20" height="20" viewBox="0 0 20 20" fill="none" xmlns="http://www.w3.org/2000/svg">
<path fill="currentColor" d="M9.41083 6.0775C9.56711 5.92127 9.77903 5.83351 10 5.83351C10.221 5.83351 10.4329 5.92127 10.5892 6.0775L15.5892 11.0775C15.741 11.2347 15.825 11.4452 15.8231 11.6637C15.8212 11.8822 15.7335 12.0912 15.579 12.2457C15.4245 12.4002 15.2155 12.4878 14.997 12.4897C14.7785 12.4916 14.568 12.4076 14.4108 12.2558L10 7.845L5.58917 12.2558C5.432 12.4076 5.2215 12.4916 5.003 12.4897C4.7845 12.4878 4.57549 12.4002 4.42098 12.2457C4.26648 12.0912 4.17884 11.8822 4.17694 11.6637C4.17504 11.4452 4.25904 11.2347 4.41083 11.0775L9.41083 6.0775Z"/>
</svg>
