<svg width="20" height="20" viewBox="0 0 20 20" fill="none" xmlns="http://www.w3.org/2000/svg">
<path fill="currentColor" d="M7.74417 15.5892C7.58794 15.4329 7.50018 15.221 7.50018 15C7.50018 14.779 7.58794 14.5671 7.74417 14.4108L12.155 10L7.74417 5.58917C7.59237 5.432 7.50837 5.2215 7.51027 5.003C7.51217 4.78451 7.59981 4.5755 7.75432 4.42099C7.90883 4.26648 8.11784 4.17884 8.33633 4.17694C8.55483 4.17504 8.76533 4.25904 8.9225 4.41084L13.9225 9.41084C14.0787 9.56711 14.1665 9.77903 14.1665 10C14.1665 10.221 14.0787 10.4329 13.9225 10.5892L8.9225 15.5892C8.76623 15.7454 8.5543 15.8332 8.33333 15.8332C8.11236 15.8332 7.90044 15.7454 7.74417 15.5892Z"/>
</svg>
