<svg width="20" height="20" viewBox="0 0 20 20" fill="none" xmlns="http://www.w3.org/2000/svg">
<path d="M4.41074 7.74415C4.56701 7.58793 4.77893 7.50016 4.9999 7.50016C5.22087 7.50016 5.4328 7.58793 5.58907 7.74415L9.9999 12.155L14.4107 7.74415C14.4876 7.66456 14.5796 7.60108 14.6812 7.5574C14.7829 7.51373 14.8923 7.49074 15.0029 7.48978C15.1136 7.48882 15.2233 7.5099 15.3257 7.5518C15.4281 7.5937 15.5212 7.65558 15.5994 7.73382C15.6776 7.81207 15.7395 7.90511 15.7814 8.00753C15.8233 8.10994 15.8444 8.21967 15.8434 8.33032C15.8425 8.44097 15.8195 8.55032 15.7758 8.65199C15.7321 8.75366 15.6687 8.84561 15.5891 8.92249L10.5891 13.9225C10.4328 14.0787 10.2209 14.1665 9.9999 14.1665C9.77893 14.1665 9.56701 14.0787 9.41074 13.9225L4.41074 8.92249C4.25451 8.76621 4.16675 8.55429 4.16675 8.33332C4.16675 8.11235 4.25451 7.90043 4.41074 7.74415Z" fill="currentColor"/>
</svg>
