<svg width="20" height="20" viewBox="0 0 20 20" fill="none" xmlns="http://www.w3.org/2000/svg">
<path fill="currentColor" d="M12.2558 4.41084C12.4121 4.56711 12.4998 4.77903 12.4998 5C12.4998 5.22097 12.4121 5.4329 12.2558 5.58917L7.845 10L12.2558 14.4108C12.4076 14.568 12.4916 14.7785 12.4897 14.997C12.4878 15.2155 12.4002 15.4245 12.2457 15.579C12.0912 15.7335 11.8822 15.8212 11.6637 15.8231C11.4452 15.825 11.2347 15.741 11.0775 15.5892L6.0775 10.5892C5.92127 10.4329 5.83351 10.221 5.83351 10C5.83351 9.77903 5.92127 9.56711 6.0775 9.41084L11.0775 4.41084C11.2338 4.25461 11.4457 4.16685 11.6667 4.16685C11.8876 4.16685 12.0996 4.25461 12.2558 4.41084Z"/>
</svg>
