<svg width="20" height="20" viewBox="0 0 20 20" fill="none" xmlns="http://www.w3.org/2000/svg">
<path fill="currentColor" d="M4.41084 7.74417C4.56711 7.58794 4.77903 7.50018 5 7.50018C5.22097 7.50018 5.4329 7.58794 5.58917 7.74417L10 12.155L14.4108 7.74417C14.4877 7.66458 14.5797 7.60109 14.6813 7.55742C14.783 7.51374 14.8924 7.49075 15.003 7.48979C15.1137 7.48883 15.2234 7.50992 15.3258 7.55182C15.4282 7.59372 15.5213 7.6556 15.5995 7.73384C15.6777 7.81208 15.7396 7.90513 15.7815 8.00754C15.8234 8.10995 15.8445 8.21969 15.8435 8.33034C15.8426 8.44099 15.8196 8.55034 15.7759 8.65201C15.7322 8.75368 15.6688 8.84563 15.5892 8.9225L10.5892 13.9225C10.4329 14.0787 10.221 14.1665 10 14.1665C9.77903 14.1665 9.56711 14.0787 9.41084 13.9225L4.41084 8.9225C4.25461 8.76623 4.16685 8.55431 4.16685 8.33334C4.16685 8.11237 4.25461 7.90044 4.41084 7.74417Z"/>
</svg>
