<svg width="20" height="20" viewBox="0 0 20 20" fill="none" xmlns="http://www.w3.org/2000/svg">
<path fill="currentColor" d="M4.41086 4.41084C4.56713 4.25461 4.77906 4.16685 5.00003 4.16685C5.221 4.16685 5.43292 4.25461 5.58919 4.41084L10 8.82167L14.4109 4.41084C14.4877 4.33125 14.5797 4.26776 14.6814 4.22409C14.783 4.18041 14.8924 4.15743 15.003 4.15646C15.1137 4.1555 15.2234 4.17659 15.3258 4.21849C15.4282 4.26039 15.5213 4.32227 15.5995 4.40051C15.6778 4.47875 15.7396 4.5718 15.7815 4.67421C15.8234 4.77663 15.8445 4.88636 15.8436 4.99701C15.8426 5.10766 15.8196 5.21701 15.7759 5.31868C15.7323 5.42035 15.6688 5.5123 15.5892 5.58917L11.1784 10L15.5892 14.4108C15.741 14.568 15.825 14.7785 15.8231 14.997C15.8212 15.2155 15.7335 15.4245 15.579 15.579C15.4245 15.7335 15.2155 15.8212 14.997 15.8231C14.7785 15.825 14.568 15.741 14.4109 15.5892L10 11.1783L5.58919 15.5892C5.43202 15.741 5.22152 15.825 5.00302 15.8231C4.78453 15.8212 4.57552 15.7335 4.42101 15.579C4.2665 15.4245 4.17886 15.2155 4.17696 14.997C4.17506 14.7785 4.25906 14.568 4.41086 14.4108L8.82169 10L4.41086 5.58917C4.25463 5.4329 4.16687 5.22098 4.16687 5.00001C4.16687 4.77904 4.25463 4.56711 4.41086 4.41084Z" fill="#454158"/>
</svg>
