<svg width="20" height="20" viewBox="0 0 20 20" fill="none" xmlns="http://www.w3.org/2000/svg">
<path fill="currentColor" d="M3.33333 5C3.33333 4.77899 3.42113 4.56703 3.57741 4.41075C3.73369 4.25447 3.94565 4.16667 4.16667 4.16667H15.8333C16.0543 4.16667 16.2663 4.25447 16.4226 4.41075C16.5789 4.56703 16.6667 4.77899 16.6667 5C16.6667 5.22102 16.5789 5.43298 16.4226 5.58926C16.2663 5.74554 16.0543 5.83333 15.8333 5.83333H4.16667C3.94565 5.83333 3.73369 5.74554 3.57741 5.58926C3.42113 5.43298 3.33333 5.22102 3.33333 5ZM3.33333 8.33333C3.33333 8.11232 3.42113 7.90036 3.57741 7.74408C3.73369 7.5878 3.94565 7.5 4.16667 7.5H15.8333C16.0543 7.5 16.2663 7.5878 16.4226 7.74408C16.5789 7.90036 16.6667 8.11232 16.6667 8.33333C16.6667 8.55435 16.5789 8.76631 16.4226 8.92259C16.2663 9.07887 16.0543 9.16667 15.8333 9.16667H4.16667C3.94565 9.16667 3.73369 9.07887 3.57741 8.92259C3.42113 8.76631 3.33333 8.55435 3.33333 8.33333ZM3.33333 11.6667C3.33333 11.4457 3.42113 11.2337 3.57741 11.0774C3.73369 10.9211 3.94565 10.8333 4.16667 10.8333H15.8333C16.0543 10.8333 16.2663 10.9211 16.4226 11.0774C16.5789 11.2337 16.6667 11.4457 16.6667 11.6667C16.6667 11.8877 16.5789 12.0996 16.4226 12.2559C16.2663 12.4122 16.0543 12.5 15.8333 12.5H4.16667C3.94565 12.5 3.73369 12.4122 3.57741 12.2559C3.42113 12.0996 3.33333 11.8877 3.33333 11.6667ZM3.33333 15C3.33333 14.779 3.42113 14.567 3.57741 14.4107C3.73369 14.2545 3.94565 14.1667 4.16667 14.1667H15.8333C16.0543 14.1667 16.2663 14.2545 16.4226 14.4107C16.5789 14.567 16.6667 14.779 16.6667 15C16.6667 15.221 16.5789 15.433 16.4226 15.5893C16.2663 15.7455 16.0543 15.8333 15.8333 15.8333H4.16667C3.94565 15.8333 3.73369 15.7455 3.57741 15.5893C3.42113 15.433 3.33333 15.221 3.33333 15Z"/>
</svg>
