<svg width="20" height="20" viewBox="0 0 20 20" fill="none" xmlns="http://www.w3.org/2000/svg">
<path fill="currentColor" d="M7.08333 8.33333C6.7537 8.33333 6.43146 8.43108 6.15738 8.61422C5.8833 8.79735 5.66968 9.05765 5.54353 9.3622C5.41739 9.66674 5.38438 10.0019 5.44869 10.3252C5.513 10.6485 5.67173 10.9454 5.90482 11.1785C6.13791 11.4116 6.43488 11.5703 6.75818 11.6346C7.08148 11.699 7.41659 11.6659 7.72114 11.5398C8.02568 11.4137 8.28598 11.2 8.46911 10.926C8.65225 10.6519 8.75 10.3296 8.75 10C8.75 9.55797 8.5744 9.13405 8.26184 8.82149C7.94928 8.50893 7.52536 8.33333 7.08333 8.33333ZM7.08333 14.1667C6.7537 14.1667 6.43146 14.2644 6.15738 14.4476C5.8833 14.6307 5.66968 14.891 5.54353 15.1955C5.41739 15.5001 5.38438 15.8352 5.44869 16.1585C5.513 16.4818 5.67173 16.7788 5.90482 17.0118C6.13791 17.2449 6.43488 17.4037 6.75818 17.468C7.08148 17.5323 7.41659 17.4993 7.72114 17.3731C8.02568 17.247 8.28598 17.0334 8.46911 16.7593C8.65225 16.4852 8.75 16.163 8.75 15.8333C8.75 15.3913 8.5744 14.9674 8.26184 14.6548C7.94928 14.3423 7.52536 14.1667 7.08333 14.1667ZM12.9167 5.83333C13.2463 5.83333 13.5685 5.73559 13.8426 5.55245C14.1167 5.36931 14.3303 5.10902 14.4565 4.80447C14.5826 4.49993 14.6156 4.16482 14.5513 3.84152C14.487 3.51822 14.3283 3.22124 14.0952 2.98816C13.8621 2.75507 13.5651 2.59633 13.2418 2.53203C12.9185 2.46772 12.5834 2.50072 12.2789 2.62687C11.9743 2.75301 11.714 2.96664 11.5309 3.24072C11.3477 3.5148 11.25 3.83703 11.25 4.16667C11.25 4.6087 11.4256 5.03262 11.7382 5.34518C12.0507 5.65774 12.4746 5.83333 12.9167 5.83333ZM7.08333 2.5C6.7537 2.5 6.43146 2.59775 6.15738 2.78088C5.8833 2.96402 5.66968 3.22432 5.54353 3.52886C5.41739 3.83341 5.38438 4.16852 5.44869 4.49182C5.513 4.81512 5.67173 5.11209 5.90482 5.34518C6.13791 5.57827 6.43488 5.737 6.75818 5.80131C7.08148 5.86562 7.41659 5.83261 7.72114 5.70647C8.02568 5.58032 8.28598 5.3667 8.46911 5.09262C8.65225 4.81854 8.75 4.4963 8.75 4.16667C8.75 3.72464 8.5744 3.30072 8.26184 2.98816C7.94928 2.6756 7.52536 2.5 7.08333 2.5ZM12.9167 14.1667C12.587 14.1667 12.2648 14.2644 11.9907 14.4476C11.7166 14.6307 11.503 14.891 11.3769 15.1955C11.2507 15.5001 11.2177 15.8352 11.282 16.1585C11.3463 16.4818 11.5051 16.7788 11.7382 17.0118C11.9712 17.2449 12.2682 17.4037 12.5915 17.468C12.9148 17.5323 13.2499 17.4993 13.5545 17.3731C13.859 17.247 14.1193 17.0334 14.3024 16.7593C14.4856 16.4852 14.5833 16.163 14.5833 15.8333C14.5833 15.3913 14.4077 14.9674 14.0952 14.6548C13.7826 14.3423 13.3587 14.1667 12.9167 14.1667ZM12.9167 8.33333C12.587 8.33333 12.2648 8.43108 11.9907 8.61422C11.7166 8.79735 11.503 9.05765 11.3769 9.3622C11.2507 9.66674 11.2177 10.0019 11.282 10.3252C11.3463 10.6485 11.5051 10.9454 11.7382 11.1785C11.9712 11.4116 12.2682 11.5703 12.5915 11.6346C12.9148 11.699 13.2499 11.6659 13.5545 11.5398C13.859 11.4137 14.1193 11.2 14.3024 10.926C14.4856 10.6519 14.5833 10.3296 14.5833 10C14.5833 9.55797 14.4077 9.13405 14.0952 8.82149C13.7826 8.50893 13.3587 8.33333 12.9167 8.33333Z"/>
</svg>
