<svg width="20" height="20" viewBox="0 0 20 20" fill="none" xmlns="http://www.w3.org/2000/svg">
<path fill="currentColor" d="M2.5 14.375V17.5H5.625L14.8417 8.28333L11.7167 5.15833L2.5 14.375ZM17.2583 4.69166L15.3083 2.74166C15.2312 2.66441 15.1397 2.60312 15.0389 2.5613C14.938 2.51948 14.83 2.49796 14.7208 2.49796C14.6117 2.49796 14.5036 2.51948 14.4028 2.5613C14.302 2.60312 14.2104 2.66441 14.1333 2.74166L12.6083 4.26666L15.7333 7.39166L17.2583 5.86666C17.3356 5.78956 17.3969 5.69799 17.4387 5.59718C17.4805 5.49637 17.502 5.3883 17.502 5.27916C17.502 5.17002 17.4805 5.06195 17.4387 4.96114C17.3969 4.86033 17.3356 4.76875 17.2583 4.69166Z"/>
</svg>
