<svg width="20" height="20" viewBox="0 0 20 20" fill="none" xmlns="http://www.w3.org/2000/svg">
<path fill="currentColor" fill-rule="evenodd" clip-rule="evenodd" d="M16.6358 17.4526C16.7116 17.484 16.7929 17.5001 16.875 17.5C16.9986 17.5 17.1194 17.4633 17.2221 17.3946C17.3248 17.3259 17.4049 17.2283 17.4522 17.1141C17.4994 17 17.5118 16.8744 17.4877 16.7532C17.4636 16.632 17.4042 16.5206 17.3168 16.4332L3.5668 2.68321C3.44864 2.57095 3.2913 2.50929 3.12832 2.51137C2.96534 2.51346 2.80963 2.57913 2.69438 2.69438C2.57913 2.80963 2.51346 2.96534 2.51137 3.12832C2.50929 3.2913 2.57095 3.44864 2.68321 3.5668L16.4332 17.3168C16.4911 17.375 16.56 17.4211 16.6358 17.4526ZM7.66446 10.3149L9.68751 12.3379C9.699 12.3495 9.70658 12.3644 9.70917 12.3805C9.71176 12.3966 9.70924 12.4132 9.70195 12.4278C9.69467 12.4424 9.68299 12.4543 9.66856 12.462C9.65413 12.4696 9.63767 12.4725 9.62149 12.4703C9.09664 12.3886 8.61134 12.1422 8.23575 11.7666C7.86015 11.391 7.61371 10.9057 7.53204 10.3809C7.52984 10.3647 7.53275 10.3482 7.54039 10.3338C7.54802 10.3194 7.55998 10.3077 7.57459 10.3004C7.5892 10.2931 7.60573 10.2906 7.62185 10.2932C7.63797 10.2958 7.65287 10.3034 7.66446 10.3149ZM12.3387 9.68751L10.3125 7.66212C10.3009 7.65047 10.2932 7.63543 10.2906 7.61917C10.288 7.60291 10.2907 7.58624 10.2981 7.57156C10.3056 7.55687 10.3175 7.54492 10.3321 7.5374C10.3468 7.52988 10.3634 7.52718 10.3797 7.52969C10.9053 7.61116 11.3913 7.85778 11.7673 8.23385C12.1434 8.60992 12.39 9.09592 12.4715 9.62149C12.4738 9.63775 12.4709 9.65432 12.4633 9.66885C12.4556 9.68338 12.4436 9.69514 12.4289 9.70245C12.4142 9.70976 12.3976 9.71225 12.3814 9.70956C12.3652 9.70688 12.3502 9.69916 12.3387 9.68751ZM19.3767 9.99865C19.3774 10.2393 19.309 10.4752 19.1797 10.6781C18.4602 11.8116 17.5748 12.8307 16.5531 13.7016C16.5232 13.7267 16.4849 13.7396 16.4458 13.7379C16.4068 13.7362 16.3698 13.7199 16.3422 13.6922L13.6879 11.0359C13.6687 11.0168 13.6549 10.993 13.6477 10.9669C13.6405 10.9409 13.6402 10.9134 13.6469 10.8871C13.7993 10.2616 13.7881 9.60743 13.6144 8.98751C13.4407 8.36759 13.1104 7.80282 12.6551 7.34759C12.1999 6.89236 11.6352 6.56199 11.0152 6.3883C10.3953 6.21461 9.74111 6.20344 9.11562 6.35587C9.08933 6.36258 9.06174 6.36232 9.03558 6.35513C9.00941 6.34794 8.98557 6.33406 8.9664 6.31485L7.12109 4.46954C7.10219 4.45072 7.08842 4.42738 7.0811 4.40173C7.07377 4.37609 7.07314 4.34899 7.07925 4.32303C7.08535 4.29707 7.09801 4.2731 7.116 4.25342C7.13399 4.23373 7.15672 4.21897 7.18203 4.21055C8.08625 3.90684 9.03363 3.75132 9.9875 3.75001C11.7969 3.75001 13.6328 4.31837 15.298 5.39337C16.8012 6.36407 18.1422 7.72188 19.1758 9.32032C19.3063 9.52255 19.376 9.75798 19.3767 9.99865ZM8.36141 13.3732C8.87204 13.6212 9.43232 13.75 10 13.75C10.2981 13.7501 10.5951 13.7147 10.8848 13.6445C10.911 13.6379 10.9385 13.6382 10.9646 13.6454C10.9907 13.6526 11.0145 13.6664 11.0336 13.6856L12.8879 15.5395C12.9069 15.5584 12.9206 15.5819 12.9279 15.6077C12.9351 15.6335 12.9356 15.6608 12.9293 15.6868C12.923 15.7129 12.9101 15.7369 12.8918 15.7565C12.8735 15.7761 12.8505 15.7907 12.825 15.7988C11.9082 16.0952 10.951 16.2474 9.9875 16.25C8.12187 16.25 6.33047 15.7031 4.66289 14.6238C3.18281 13.6664 1.85547 12.3066 0.823826 10.6922C0.689887 10.4844 0.620751 10.2414 0.625202 9.99425C0.629654 9.74706 0.707492 9.50677 0.848826 9.30391C1.65625 8.14805 2.53945 7.15899 3.49219 6.3461C3.52212 6.32083 3.56046 6.30773 3.5996 6.3094C3.63874 6.31106 3.67583 6.32737 3.70351 6.35509L6.31445 8.9672C6.33359 8.98633 6.34743 9.0101 6.35462 9.03619C6.36181 9.06228 6.3621 9.08979 6.35547 9.11602C6.22165 9.6677 6.21483 10.2426 6.33552 10.7973C6.4562 11.352 6.70125 11.872 7.05219 12.3182C7.40312 12.7644 7.85078 13.1252 8.36141 13.3732Z"/>
</svg>
