<svg width="20" height="20" viewBox="0 0 20 20" fill="none" xmlns="http://www.w3.org/2000/svg">
<path fill="currentColor" fill-rule="evenodd" clip-rule="evenodd" d="M15.2957 5.39336C16.7988 6.36406 18.1398 7.72188 19.1734 9.32031C19.3039 9.52255 19.3737 9.75797 19.3743 9.99865C19.375 10.2393 19.3067 10.4751 19.1773 10.6781C18.1477 12.2898 16.8094 13.6527 15.307 14.6203C13.6512 15.6863 11.8113 16.25 9.98672 16.25C8.12109 16.25 6.32813 15.7031 4.66211 14.6238C3.18242 13.6664 1.85469 12.3066 0.823048 10.6922C0.689109 10.4844 0.619973 10.2414 0.624424 9.99425C0.628875 9.74705 0.706714 9.50676 0.848048 9.30391C2.1 7.50898 3.54141 6.11484 5.13242 5.16055C6.69258 4.22461 8.32578 3.75 9.98672 3.75C11.7969 3.75 13.6328 4.31836 15.2957 5.39336ZM7.91661 13.118C8.5333 13.5301 9.25832 13.75 10 13.75C10.9942 13.7489 11.9474 13.3534 12.6504 12.6504C13.3534 11.9474 13.7489 10.9942 13.75 10C13.75 9.25832 13.5301 8.5333 13.118 7.91661C12.706 7.29993 12.1203 6.81928 11.4351 6.53545C10.7498 6.25162 9.99584 6.17736 9.26841 6.32206C8.54098 6.46675 7.8728 6.8239 7.34835 7.34835C6.8239 7.8728 6.46675 8.54098 6.32206 9.26841C6.17736 9.99584 6.25162 10.7498 6.53545 11.4351C6.81928 12.1203 7.29993 12.706 7.91661 13.118ZM12.5 10C12.5 11.3807 11.3807 12.5 10 12.5C8.61929 12.5 7.5 11.3807 7.5 10C7.5 8.61929 8.61929 7.5 10 7.5C11.3807 7.5 12.5 8.61929 12.5 10Z"/>
</svg>
