<svg width="20" height="20" viewBox="0 0 20 20" fill="none" xmlns="http://www.w3.org/2000/svg">
<path fill-rule="evenodd" clip-rule="evenodd" d="M9.27639 7.3618L2 11V17C2 17.5523 2.44772 18 3 18H17C17.5523 18 18 17.5523 18 17V7.80902C18 7.43733 17.6088 7.19558 17.2764 7.3618L10 11V7.80902C10 7.43733 9.60884 7.19558 9.27639 7.3618ZM5 13C4.44772 13 4 13.4477 4 14V15C4 15.5523 4.44772 16 5 16C5.55228 16 6 15.5523 6 15V14C6 13.4477 5.55228 13 5 13ZM9 14C9 13.4477 9.44772 13 10 13C10.5523 13 11 13.4477 11 14V15C11 15.5523 10.5523 16 10 16C9.44772 16 9 15.5523 9 15V14ZM15 13C14.4477 13 14 13.4477 14 14V15C14 15.5523 14.4477 16 15 16C15.5523 16 16 15.5523 16 15V14C16 13.4477 15.5523 13 15 13Z" fill="currentColor"/>
<path d="M3.5 2C3.22386 2 3 2.22386 3 2.5V3H6V2.5C6 2.22386 5.77614 2 5.5 2H3.5Z" fill="currentColor"/>
<path d="M6 4H3V9.5L6 8V4Z" fill="currentColor"/>
<path d="M13.5 2C13.2239 2 13 2.22386 13 2.5V3H16V2.5C16 2.22386 15.7761 2 15.5 2H13.5Z" fill="currentColor"/>
<path d="M16 4H13V8.5L16 7V4Z" fill="currentColor"/>
</svg>
