<svg width="20" height="20" viewBox="0 0 20 20" fill="none" xmlns="http://www.w3.org/2000/svg">
<path fill="currentColor" d="M15.5371 8.03711C15.8105 8.03711 16.0645 8.08919 16.2988 8.19336C16.5332 8.29753 16.7415 8.4375 16.9238 8.61328C17.1061 8.78906 17.2461 8.99414 17.3438 9.22852C17.4414 9.46289 17.4935 9.72005 17.5 10C17.5 10.2734 17.4479 10.5273 17.3438 10.7617C17.2396 10.9961 17.0996 11.2044 16.9238 11.3867C16.748 11.569 16.543 11.709 16.3086 11.8066C16.0742 11.9043 15.8171 11.9564 15.5371 11.9629H3.85742C3.58398 11.9629 3.33008 11.9108 3.0957 11.8066C2.86133 11.7025 2.65299 11.5625 2.4707 11.3867C2.28841 11.2109 2.15169 11.0059 2.06055 10.7715C1.9694 10.5371 1.91732 10.2799 1.9043 10C1.9043 9.72656 1.95312 9.47266 2.05078 9.23828C2.14844 9.00391 2.28841 8.79557 2.4707 8.61328C2.65299 8.43099 2.85807 8.29102 3.08594 8.19336C3.3138 8.0957 3.57096 8.04362 3.85742 8.03711H15.5371Z"/>
</svg>
