<svg width="20" height="20" viewBox="0 0 20 20" fill="none" xmlns="http://www.w3.org/2000/svg">
<path fill="currentColor" d="M2.5 14.1667H12.5C12.7124 14.1669 12.9167 14.2482 13.0711 14.394C13.2256 14.5399 13.3185 14.7391 13.331 14.9512C13.3434 15.1632 13.2744 15.372 13.1381 15.5349C13.0018 15.6977 12.8084 15.8024 12.5975 15.8275L12.5 15.8333H2.5C2.2876 15.8331 2.0833 15.7518 1.92886 15.606C1.77441 15.4602 1.68147 15.2609 1.66902 15.0488C1.65657 14.8368 1.72556 14.628 1.86188 14.4651C1.99821 14.3023 2.19158 14.1976 2.4025 14.1725L2.5 14.1667ZM2.5 10.8333H17.5C17.7124 10.8336 17.9167 10.9149 18.0711 11.0607C18.2256 11.2065 18.3185 11.4058 18.331 11.6178C18.3434 11.8299 18.2744 12.0387 18.1381 12.2015C18.0018 12.3644 17.8084 12.4691 17.5975 12.4942L17.5 12.5H2.5C2.2876 12.4998 2.0833 12.4184 1.92886 12.2726C1.77441 12.1268 1.68147 11.9275 1.66902 11.7155C1.65657 11.5035 1.72556 11.2947 1.86188 11.1318C1.99821 10.9689 2.19158 10.8643 2.4025 10.8392L2.5 10.8333ZM2.5 7.5H17.5C17.7124 7.50024 17.9167 7.58157 18.0711 7.72738C18.2256 7.87318 18.3185 8.07246 18.331 8.2845C18.3434 8.49653 18.2744 8.70532 18.1381 8.8682C18.0018 9.03107 17.8084 9.13575 17.5975 9.16084L17.5 9.16667H2.5C2.2876 9.16643 2.0833 9.0851 1.92886 8.9393C1.77441 8.79349 1.68147 8.59421 1.66902 8.38217C1.65657 8.17014 1.72556 7.96135 1.86188 7.79847C1.99821 7.6356 2.19158 7.53092 2.4025 7.50584L2.5 7.5ZM2.5 4.16667H17.5C17.7124 4.1669 17.9167 4.24823 18.0711 4.39404C18.2256 4.53985 18.3185 4.73913 18.331 4.95116C18.3434 5.1632 18.2744 5.37198 18.1381 5.53486C18.0018 5.69774 17.8084 5.80242 17.5975 5.8275L17.5 5.83333H2.5C2.2876 5.8331 2.0833 5.75177 1.92886 5.60596C1.77441 5.46015 1.68147 5.26087 1.66902 5.04884C1.65657 4.8368 1.72556 4.62802 1.86188 4.46514C1.99821 4.30226 2.19158 4.19759 2.4025 4.1725L2.5 4.16667Z"/>
</svg>
