<svg width="20" height="20" viewBox="0 0 20 20" fill="none" xmlns="http://www.w3.org/2000/svg">
<path fill="currentColor" d="M14.3801 3.92062C11.7768 1.35979 7.55597 1.35979 4.95264 3.92062C4.33454 4.52449 3.84339 5.24582 3.50807 6.04222C3.17274 6.83861 3 7.69401 3 8.55813C3 9.42224 3.17274 10.2776 3.50807 11.074C3.84339 11.8704 4.33454 12.5918 4.95264 13.1956L9.66597 17.8331L14.3801 13.1956C14.9982 12.5918 15.4894 11.8704 15.8247 11.074C16.16 10.2776 16.3328 9.42224 16.3328 8.55813C16.3328 7.69401 16.16 6.83861 15.8247 6.04222C15.4894 5.24582 14.9982 4.52449 14.3801 3.92062ZM9.66597 10.7498C9.1093 10.7498 8.58681 10.5331 8.19264 10.1398C7.80243 9.74875 7.58328 9.21888 7.58328 8.66646C7.58328 8.11403 7.80243 7.58417 8.19264 7.19312C8.58597 6.79979 9.1093 6.58312 9.66597 6.58312C10.2226 6.58312 10.746 6.79979 11.1393 7.19312C11.5295 7.58417 11.7487 8.11403 11.7487 8.66646C11.7487 9.21888 11.5295 9.74875 11.1393 10.1398C10.746 10.5331 10.2226 10.7498 9.66597 10.7498Z"/>
</svg>
