<svg width="20" height="20" viewBox="0 0 20 20" fill="none" xmlns="http://www.w3.org/2000/svg">
<path fill="currentColor" d="M18 6.18182V6.29673L10.5989 10.6444C10.4188 10.7501 10.2115 10.8061 10 10.8061C9.78855 10.8061 9.58124 10.7501 9.40114 10.6444L2 6.29673V6.18182C2 5.60316 2.24082 5.04821 2.66947 4.63904C3.09812 4.22987 3.67951 4 4.28571 4H15.7143C16.3205 4 16.9019 4.22987 17.3305 4.63904C17.7592 5.04821 18 5.60316 18 6.18182Z"/>
<path fill="currentColor" d="M2 13.8182V7.57818L8.80229 11.5731C9.16248 11.7846 9.5771 11.8966 10 11.8966C10.4229 11.8966 10.8375 11.7846 11.1977 11.5731L18 7.57818V13.8182C18 14.3968 17.7592 14.9518 17.3305 15.361C16.9019 15.7701 16.3205 16 15.7143 16H4.28571C3.67951 16 3.09812 15.7701 2.66947 15.361C2.24082 14.9518 2 14.3968 2 13.8182Z"/>
</svg>
