<svg width="20" height="20" viewBox="0 0 20 20" fill="none" xmlns="http://www.w3.org/2000/svg">
<path fill="currentColor" d="M14.1667 10.8333H5.83333V9.16667H14.1667M10 1.66667C8.90565 1.66667 7.82202 1.88222 6.81097 2.30101C5.79992 2.7198 4.88126 3.33363 4.10744 4.10745C2.54464 5.67025 1.66666 7.78987 1.66666 10C1.66666 12.2101 2.54464 14.3298 4.10744 15.8926C4.88126 16.6664 5.79992 17.2802 6.81097 17.699C7.82202 18.1178 8.90565 18.3333 10 18.3333C12.2101 18.3333 14.3298 17.4554 15.8926 15.8926C17.4554 14.3298 18.3333 12.2101 18.3333 10C18.3333 8.90566 18.1178 7.82202 17.699 6.81098C17.2802 5.79993 16.6664 4.88127 15.8926 4.10745C15.1187 3.33363 14.2001 2.7198 13.189 2.30101C12.178 1.88222 11.0943 1.66667 10 1.66667Z"/>
</svg>
