<svg width="20" height="20" viewBox="0 0 20 20" fill="none" xmlns="http://www.w3.org/2000/svg">
<path fill="currentColor" d="M3.33332 4.16667H16.6667C17.1087 4.16667 17.5326 4.34227 17.8452 4.65483C18.1577 4.96739 18.3333 5.39131 18.3333 5.83334V14.1667C18.3333 14.6087 18.1577 15.0326 17.8452 15.3452C17.5326 15.6577 17.1087 15.8333 16.6667 15.8333H3.33332C2.8913 15.8333 2.46737 15.6577 2.15481 15.3452C1.84225 15.0326 1.66666 14.6087 1.66666 14.1667V5.83334C1.66666 5.39131 1.84225 4.96739 2.15481 4.65483C2.46737 4.34227 2.8913 4.16667 3.33332 4.16667ZM15 5.83334H4.99999C4.99999 6.27537 4.8244 6.69929 4.51183 7.01185C4.19927 7.32441 3.77535 7.50001 3.33332 7.50001V12.5C3.77535 12.5 4.19927 12.6756 4.51183 12.9882C4.8244 13.3007 4.99999 13.7246 4.99999 14.1667H15C15 13.7246 15.1756 13.3007 15.4881 12.9882C15.8007 12.6756 16.2246 12.5 16.6667 12.5V7.50001C16.2246 7.50001 15.8007 7.32441 15.4881 7.01185C15.1756 6.69929 15 6.27537 15 5.83334ZM6.66666 7.50001H8.33332V12.5H6.66666V7.50001ZM11.6667 10.8333C11.8877 10.8333 12.0996 10.7455 12.2559 10.5893C12.4122 10.433 12.5 10.221 12.5 10C12.5 9.77899 12.4122 9.56703 12.2559 9.41075C12.0996 9.25447 11.8877 9.16667 11.6667 9.16667C11.4456 9.16667 11.2337 9.25447 11.0774 9.41075C10.9211 9.56703 10.8333 9.77899 10.8333 10C10.8333 10.221 10.9211 10.433 11.0774 10.5893C11.2337 10.7455 11.4456 10.8333 11.6667 10.8333ZM11.6667 12.5C11.0036 12.5 10.3677 12.2366 9.89889 11.7678C9.43005 11.2989 9.16666 10.663 9.16666 10C9.16666 9.33696 9.43005 8.70108 9.89889 8.23224C10.3677 7.7634 11.0036 7.50001 11.6667 7.50001C12.3297 7.50001 12.9656 7.7634 13.4344 8.23224C13.9033 8.70108 14.1667 9.33696 14.1667 10C14.1667 10.663 13.9033 11.2989 13.4344 11.7678C12.9656 12.2366 12.3297 12.5 11.6667 12.5Z"/>
</svg>
