<svg width="20" height="20" viewBox="0 0 20 20" fill="none" xmlns="http://www.w3.org/2000/svg">
<path fill="currentColor" fill-rule="evenodd" clip-rule="evenodd" d="M2.5 5C2.5 4.53976 2.8731 4.16667 3.33333 4.16667H16.6667C17.1269 4.16667 17.5 4.53976 17.5 5C17.5 5.46024 17.1269 5.83333 16.6667 5.83333H3.33333C2.8731 5.83333 2.5 5.46024 2.5 5ZM2.5 10C2.5 9.53976 2.8731 9.16667 3.33333 9.16667H16.6667C17.1269 9.16667 17.5 9.53976 17.5 10C17.5 10.4602 17.1269 10.8333 16.6667 10.8333H3.33333C2.8731 10.8333 2.5 10.4602 2.5 10ZM2.5 15C2.5 14.5398 2.8731 14.1667 3.33333 14.1667H16.6667C17.1269 14.1667 17.5 14.5398 17.5 15C17.5 15.4602 17.1269 15.8333 16.6667 15.8333H3.33333C2.8731 15.8333 2.5 15.4602 2.5 15Z"/>
</svg>
