<svg width="20" height="20" viewBox="0 0 20 20" fill="none" xmlns="http://www.w3.org/2000/svg">

<path fill="currentColor" fill-rule="evenodd" clip-rule="evenodd" d="M16.4808 3.69167C16.6868 3.60499 16.9122 3.5751 17.1336 3.6051C17.355 3.6351 17.5643 3.72389 17.7397 3.86224C17.9152 4.00059 18.0503 4.18343 18.1311 4.39174C18.2119 4.60004 18.2354 4.8262 18.1992 5.04667L16.3092 16.5108C16.1258 17.6167 14.9125 18.2508 13.8983 17.7C13.05 17.2392 11.79 16.5292 10.6567 15.7883C10.09 15.4175 8.35417 14.23 8.56751 13.385C8.75084 12.6625 11.6675 9.9475 13.3342 8.33333C13.9883 7.69917 13.69 7.33333 12.9175 7.91667C10.9983 9.365 7.91917 11.5675 6.90084 12.1875C6.00251 12.7342 5.53417 12.8275 4.97417 12.7342C3.95251 12.5642 3.00501 12.3008 2.23167 11.98C1.18667 11.5467 1.23751 10.11 2.23084 9.69167L16.4808 3.69167Z"/>

</svg>
