<svg width="20" height="20" viewBox="0 0 20 20" fill="none" xmlns="http://www.w3.org/2000/svg">
<path fill="currentColor" fill-rule="evenodd" clip-rule="evenodd" d="M9.16667 4.16667C8.94565 4.16667 8.73369 4.25446 8.57741 4.41074C8.42113 4.56702 8.33333 4.77899 8.33333 5H11.6667C11.6667 4.77899 11.5789 4.56702 11.4226 4.41074C11.2663 4.25446 11.0543 4.16667 10.8333 4.16667H9.16667ZM9.16667 2.5C8.50363 2.5 7.86774 2.76339 7.3989 3.23223C6.93006 3.70107 6.66667 4.33696 6.66667 5H3.33333C3.11232 5 2.90036 5.0878 2.74408 5.24408C2.5878 5.40036 2.5 5.61232 2.5 5.83333C2.5 6.05435 2.5878 6.26631 2.74408 6.42259C2.90036 6.57887 3.11232 6.66667 3.33333 6.66667H4.16667V15C4.16667 15.663 4.43006 16.2989 4.8989 16.7678C5.36774 17.2366 6.00363 17.5 6.66667 17.5H13.3333C13.9964 17.5 14.6323 17.2366 15.1011 16.7678C15.5699 16.2989 15.8333 15.663 15.8333 15V6.66667H16.6667C16.8877 6.66667 17.0996 6.57887 17.2559 6.42259C17.4122 6.26631 17.5 6.05435 17.5 5.83333C17.5 5.61232 17.4122 5.40036 17.2559 5.24408C17.0996 5.0878 16.8877 5 16.6667 5H13.3333C13.3333 4.33696 13.0699 3.70107 12.6011 3.23223C12.1323 2.76339 11.4964 2.5 10.8333 2.5H9.16667ZM9.16667 9.16667C9.16667 8.94565 9.07887 8.73369 8.92259 8.57741C8.76631 8.42113 8.55435 8.33333 8.33333 8.33333C8.11232 8.33333 7.90036 8.42113 7.74408 8.57741C7.5878 8.73369 7.5 8.94565 7.5 9.16667V13.3333C7.5 13.5543 7.5878 13.7663 7.74408 13.9226C7.90036 14.0789 8.11232 14.1667 8.33333 14.1667C8.55435 14.1667 8.76631 14.0789 8.92259 13.9226C9.07887 13.7663 9.16667 13.5543 9.16667 13.3333V9.16667ZM12.5 9.16667C12.5 8.94565 12.4122 8.73369 12.2559 8.57741C12.0996 8.42113 11.8877 8.33333 11.6667 8.33333C11.4457 8.33333 11.2337 8.42113 11.0774 8.57741C10.9211 8.73369 10.8333 8.94565 10.8333 9.16667V13.3333C10.8333 13.5543 10.9211 13.7663 11.0774 13.9226C11.2337 14.0789 11.4457 14.1667 11.6667 14.1667C11.8877 14.1667 12.0996 14.0789 12.2559 13.9226C12.4122 13.7663 12.5 13.5543 12.5 13.3333V9.16667Z"/>
</svg>
