<svg width="20" height="20" viewBox="0 0 20 20" fill="none" xmlns="http://www.w3.org/2000/svg">
<path fill="currentColor" d="M4.41083 4.41083C4.5671 4.25461 4.77902 4.16684 4.99999 4.16684C5.22097 4.16684 5.43289 4.25461 5.58916 4.41083L10 8.82167L14.4108 4.41083C14.4877 4.33124 14.5797 4.26776 14.6813 4.22408C14.783 4.18041 14.8923 4.15742 15.003 4.15646C15.1136 4.1555 15.2234 4.17658 15.3258 4.21848C15.4282 4.26038 15.5212 4.32226 15.5995 4.4005C15.6777 4.47875 15.7396 4.57179 15.7815 4.6742C15.8234 4.77662 15.8445 4.88635 15.8435 4.997C15.8426 5.10765 15.8196 5.217 15.7759 5.31867C15.7322 5.42034 15.6688 5.51229 15.5892 5.58917L11.1783 10L15.5892 14.4108C15.741 14.568 15.825 14.7785 15.8231 14.997C15.8212 15.2155 15.7335 15.4245 15.579 15.579C15.4245 15.7335 15.2155 15.8212 14.997 15.8231C14.7785 15.825 14.568 15.741 14.4108 15.5892L10 11.1783L5.58916 15.5892C5.43199 15.741 5.22149 15.825 5.00299 15.8231C4.7845 15.8212 4.57549 15.7335 4.42098 15.579C4.26647 15.4245 4.17883 15.2155 4.17693 14.997C4.17503 14.7785 4.25903 14.568 4.41083 14.4108L8.82166 10L4.41083 5.58917C4.2546 5.43289 4.16684 5.22097 4.16684 5C4.16684 4.77903 4.2546 4.56711 4.41083 4.41083Z"/>
</svg>
