<svg width="20" height="15" viewBox="0 0 20 15" fill="none" xmlns="http://www.w3.org/2000/svg">
<g clip-path="url(#clip0_84_6812)">
<path d="M0.000854492 0H19.9993V14.9988H0.000854492V0Z" fill="white"/>
<path d="M8.50012 0H11.4999V14.9988H8.50012V0Z" fill="#FF0000"/>
<path d="M0.000778198 5.99954H19.9992V8.99931H0.000778198V5.99954Z" fill="#FF0000"/>
<path fill-rule="evenodd" clip-rule="evenodd" d="M4.58792 11.6585C4.61917 11.1335 4.71291 10.6867 4.71291 10.6867C4.71291 10.6867 4.40668 10.7179 4.25045 10.7179C4.09733 10.7179 3.78798 10.6867 3.78798 10.6867C3.78798 10.6867 3.88173 11.1335 3.91297 11.6616C3.38489 11.6304 2.93805 11.5366 2.93805 11.5366C2.93805 11.5366 2.9693 11.7678 2.9693 11.9991C2.9693 12.2303 2.93805 12.4615 2.93805 12.4615C2.93805 12.4615 3.38489 12.3678 3.91297 12.3365C3.88173 12.8646 3.78798 13.3115 3.78798 13.3115C3.78798 13.3115 4.01921 13.2802 4.25045 13.2802C4.48168 13.2802 4.71291 13.3115 4.71291 13.3115C4.71291 13.3115 4.61917 12.8646 4.58792 12.3365C5.116 12.3678 5.56284 12.4615 5.56284 12.4615C5.56284 12.4615 5.5316 12.1553 5.5316 11.9991C5.5316 11.846 5.56284 11.5366 5.56284 11.5366C5.56284 11.5366 5.116 11.6304 4.59105 11.6616L4.58792 11.6585ZM16.087 2.65918C16.1183 2.13422 16.212 1.68738 16.212 1.68738C16.212 1.68738 15.9058 1.71863 15.7495 1.71863C15.5964 1.71863 15.2871 1.68738 15.2871 1.68738C15.2871 1.68738 15.3808 2.13422 15.4121 2.65918C14.884 2.62793 14.4372 2.53731 14.4372 2.53731C14.4372 2.53731 14.4684 2.76854 14.4684 2.99978C14.4684 3.23101 14.4372 3.46224 14.4372 3.46224C14.4372 3.46224 14.884 3.3685 15.4121 3.33725C15.3808 3.86533 15.2871 4.31217 15.2871 4.31217C15.2871 4.31217 15.5183 4.28093 15.7495 4.28093C15.9808 4.28093 16.212 4.31217 16.212 4.31217C16.212 4.31217 16.1183 3.86533 16.087 3.34037C16.6151 3.37162 17.0619 3.46536 17.0619 3.46536C17.0619 3.46536 17.0307 3.15289 17.0307 2.99978C17.0307 2.84666 17.0619 2.53731 17.0619 2.53731C17.0619 2.53731 16.6151 2.63105 16.087 2.6623V2.65918ZM4.58792 2.65918C4.61917 2.13422 4.71291 1.68738 4.71291 1.68738C4.71291 1.68738 4.40668 1.71863 4.25045 1.71863C4.09733 1.71863 3.78798 1.68738 3.78798 1.68738C3.78798 1.68738 3.88173 2.13422 3.91297 2.6623C3.38489 2.63105 2.93805 2.53731 2.93805 2.53731C2.93805 2.53731 2.9693 2.76854 2.9693 2.99978C2.9693 3.23101 2.93805 3.46224 2.93805 3.46224C2.93805 3.46224 3.38489 3.3685 3.91297 3.33725C3.88173 3.86533 3.78798 4.31217 3.78798 4.31217C3.78798 4.31217 4.01921 4.28093 4.25045 4.28093C4.48168 4.28093 4.71291 4.31217 4.71291 4.31217C4.71291 4.31217 4.61917 3.86533 4.58792 3.33725C5.116 3.3685 5.56284 3.46224 5.56284 3.46224C5.56284 3.46224 5.5316 3.15601 5.5316 2.99978C5.5316 2.84666 5.56284 2.53731 5.56284 2.53731C5.56284 2.53731 5.116 2.63105 4.59105 2.6623L4.58792 2.65918ZM16.087 11.6585C16.1183 11.1335 16.212 10.6867 16.212 10.6867C16.212 10.6867 15.9058 10.7179 15.7495 10.7179C15.5964 10.7179 15.2871 10.6867 15.2871 10.6867C15.2871 10.6867 15.3808 11.1335 15.4121 11.6616C14.884 11.6304 14.4372 11.5366 14.4372 11.5366C14.4372 11.5366 14.4684 11.7678 14.4684 11.9991C14.4684 12.2303 14.4372 12.4615 14.4372 12.4615C14.4372 12.4615 14.884 12.3678 15.4121 12.3365C15.3808 12.8646 15.2871 13.3115 15.2871 13.3115C15.2871 13.3115 15.5183 13.2802 15.7495 13.2802C15.9808 13.2802 16.212 13.3115 16.212 13.3115C16.212 13.3115 16.1183 12.8646 16.087 12.3365C16.6151 12.3678 17.0619 12.4615 17.0619 12.4615C17.0619 12.4615 17.0307 12.1553 17.0307 11.9991C17.0307 11.846 17.0619 11.5366 17.0619 11.5366C17.0619 11.5366 16.6151 11.6304 16.087 11.6616V11.6585Z" fill="#FF0000"/>
</g>
<defs>
<clipPath id="clip0_84_6812">
<rect width="20" height="14.9988" rx="3" fill="white"/>
</clipPath>
</defs>
</svg>
